<svg width="26" height="26" viewBox="0 0 26 26" fill="none" xmlns="http://www.w3.org/2000/svg">
<g id="24 / music / artist">
<path id="icon" fill-rule="evenodd" clip-rule="evenodd" d="M15.0263 14.7453C13.2922 14.0869 11.9131 12.7077 11.2546 10.9737L4.65677 20.4581L5.54187 21.3432L15.0263 14.7453ZM10.908 7.67781C11.3843 4.55726 14.0796 2.16666 17.3333 2.16666C20.9231 2.16666 23.8333 5.07681 23.8333 8.66666C23.8333 11.9203 21.4427 14.6156 18.3221 15.0919L5.29137 24.1568L1.84314 20.7086L10.908 7.67781ZM21.1485 10.7232C21.479 10.1113 21.6666 9.41089 21.6666 8.66666C21.6666 6.27342 19.7265 4.33332 17.3333 4.33332C16.5818 4.33332 15.8751 4.5246 15.259 4.86112C15.5867 5.88371 16.7138 7.59846 17.5577 8.44229C18.3877 9.27234 20.0728 10.3743 21.1485 10.7232ZM19.5358 12.3993C18.8904 12.781 18.1374 13 17.3333 13C14.9401 13 13 11.0599 13 8.66666C13 7.8698 13.215 7.12318 13.5903 6.48168C14.1934 7.76432 15.1611 9.10984 16.0256 9.97436C16.879 10.8278 18.2367 11.7932 19.5358 12.3993Z" fill="white"/>
</g>
</svg>
