<svg width="26" height="26" viewBox="0 0 26 26" fill="none" xmlns="http://www.w3.org/2000/svg">
<g id="24 / gadgets / devices">
<path id="icon" fill-rule="evenodd" clip-rule="evenodd" d="M3.25004 6.50001V16.25L1.08337 16.25V19.5C1.08337 20.6966 2.05342 21.6667 3.25004 21.6667H17.3334H22.75C23.9467 21.6667 24.9167 20.6966 24.9167 19.5V9.75001C24.9167 8.55339 23.9467 7.58334 22.75 7.58334V6.50001C22.75 5.30339 21.78 4.33334 20.5834 4.33334H5.41671C4.22009 4.33334 3.25004 5.30339 3.25004 6.50001ZM20.5834 7.58334V6.50001H5.41671V16.25L15.1667 16.25L15.1667 9.75001C15.1667 8.55339 16.1368 7.58334 17.3334 7.58334L20.5834 7.58334ZM3.25004 18.4167H15.1667L15.1667 19.5L3.25004 19.5V18.4167ZM22.75 19.5H17.3334V9.75001H22.75V19.5Z" fill="white"/>
</g>
</svg>
