<svg width="26" height="26" viewBox="0 0 26 26" fill="none" xmlns="http://www.w3.org/2000/svg">
<path fill-rule="evenodd" clip-rule="evenodd" d="M2.39 10.8969C2.05698 11.105 1.625 10.8656 1.625 10.4729V4.15214C1.625 3.75942 2.05698 3.52 2.39 3.72814L7.4466 6.88851C7.75994 7.08435 7.75994 7.54068 7.4466 7.73651L2.39 10.8969ZM13.8125 8.12501C13.3638 8.12501 13 8.48878 13 8.93751C13 9.38624 13.3638 9.75001 13.8125 9.75001H23.5625C24.0112 9.75001 24.375 9.38624 24.375 8.93751C24.375 8.48878 24.0112 8.12501 23.5625 8.12501H13.8125ZM1.625 15.4375C1.625 14.9888 1.98877 14.625 2.4375 14.625H23.5625C24.0112 14.625 24.375 14.9888 24.375 15.4375C24.375 15.8862 24.0112 16.25 23.5625 16.25H2.4375C1.98877 16.25 1.625 15.8862 1.625 15.4375ZM2.4375 21.125C1.98877 21.125 1.625 21.4888 1.625 21.9375C1.625 22.3862 1.98877 22.75 2.4375 22.75H23.5625C24.0112 22.75 24.375 22.3862 24.375 21.9375C24.375 21.4888 24.0112 21.125 23.5625 21.125H2.4375Z" fill="white"/>
</svg>
