<svg width="198" height="60" viewBox="0 0 198 60" fill="none" xmlns="http://www.w3.org/2000/svg">
<path fill-rule="evenodd" clip-rule="evenodd" d="M181.284 51.6755C179.415 51.6755 177.905 51.2945 176.232 50.4065C176.156 50.3675 176.097 50.3001 176.069 50.2185C176.041 50.1369 176.047 50.0478 176.084 49.97L177.687 46.5185C177.707 46.4763 177.736 46.4385 177.77 46.4073C177.805 46.3762 177.846 46.3523 177.89 46.337C177.982 46.3099 178.08 46.3191 178.166 46.3625C179.063 46.8455 179.942 47.0885 180.776 47.0885C181.805 47.0885 182.561 46.757 183.327 45.086L176.564 29.183H172.148V45.0875C172.147 45.1787 172.11 45.266 172.045 45.3301C171.98 45.3941 171.893 45.4299 171.801 45.4295H167.072C167.027 45.4297 166.982 45.421 166.94 45.4039C166.899 45.3869 166.861 45.3617 166.829 45.33C166.796 45.2982 166.771 45.2604 166.754 45.2188C166.736 45.1772 166.727 45.1326 166.727 45.0875V29.183H164.456C164.411 29.1834 164.366 29.1749 164.324 29.158C164.282 29.1411 164.244 29.1161 164.212 29.0845C164.18 29.0529 164.154 29.0153 164.137 28.9737C164.119 28.9322 164.11 28.8876 164.109 28.8425V24.839C164.111 24.748 164.148 24.6612 164.212 24.5974C164.277 24.5337 164.365 24.4981 164.456 24.4985H166.727V23.516C166.727 18.956 169.037 16.544 173.405 16.544C175.199 16.544 176.399 16.826 177.336 17.099C177.406 17.1197 177.468 17.1624 177.512 17.2207C177.555 17.2791 177.579 17.35 177.579 17.423V21.3305C177.579 21.385 177.567 21.4388 177.542 21.4876C177.518 21.5363 177.482 21.5786 177.438 21.611C177.393 21.6417 177.341 21.6615 177.287 21.6691C177.232 21.6766 177.177 21.6716 177.125 21.6545C176.238 21.365 175.446 21.1715 174.461 21.1715C172.806 21.1715 172.07 22.013 172.07 23.8985V24.5405H180.15C180.293 24.5405 180.423 24.626 180.471 24.758L185.997 38.891L191.04 24.7685C191.064 24.7011 191.109 24.6428 191.167 24.6019C191.226 24.561 191.296 24.5396 191.367 24.5405H196.292C196.407 24.5405 196.511 24.5945 196.577 24.686C196.608 24.7317 196.627 24.7842 196.634 24.8391C196.64 24.8939 196.633 24.9495 196.613 25.001L188.408 45.7895C186.705 50.0795 184.775 51.6755 181.284 51.6755ZM159.218 21.9575C157.346 21.9575 155.823 20.4695 155.823 18.632C155.823 16.793 157.346 15.3065 159.218 15.3065C161.09 15.3065 162.609 16.793 162.609 18.632C162.609 20.4695 161.09 21.9575 159.218 21.9575ZM148.734 29.183V38.7695C148.734 40.2815 149.412 40.9565 150.929 40.9565C151.913 40.9565 152.793 40.7495 153.704 40.301C153.757 40.2749 153.816 40.2626 153.875 40.2652C153.934 40.2679 153.991 40.2853 154.041 40.316C154.091 40.346 154.133 40.3885 154.161 40.4392C154.19 40.49 154.205 40.5472 154.205 40.6055V44.402C154.204 44.4618 154.188 44.5203 154.157 44.5715C154.126 44.6226 154.082 44.6646 154.029 44.693C152.703 45.4325 151.296 45.776 149.6 45.776C145.428 45.776 143.313 43.6625 143.313 39.497V29.183H141.038C140.993 29.1832 140.948 29.1746 140.907 29.1575C140.865 29.1405 140.827 29.1155 140.796 29.0839C140.764 29.0523 140.738 29.0147 140.721 28.9733C140.704 28.9319 140.695 28.8874 140.694 28.8425V24.86C140.694 24.671 140.849 24.5195 141.038 24.5195H143.313V19.2995C143.313 19.1135 143.468 18.962 143.66 18.962H148.388C148.58 18.962 148.734 19.1135 148.734 19.2995V24.5195H153.938C154.128 24.5195 154.283 24.671 154.283 24.86V28.8425C154.283 28.8875 154.274 28.9321 154.256 28.9736C154.239 29.0151 154.213 29.0528 154.181 29.0844C154.149 29.1161 154.111 29.1411 154.069 29.158C154.028 29.1749 153.983 29.1834 153.938 29.183H148.734ZM128.921 45.89C122.591 45.89 117.632 41.1305 117.632 35.0525C117.632 28.907 122.625 24.095 128.999 24.095C135.351 24.095 140.327 28.874 140.327 34.9745C140.327 41.096 135.318 45.89 128.921 45.89ZM128.921 28.838C125.519 28.838 123.053 31.418 123.053 34.9745C123.053 38.5145 125.609 41.1875 128.999 41.1875C132.422 41.1875 134.906 38.6075 134.906 35.0525C134.906 31.508 132.333 28.838 128.921 28.838ZM106.196 45.8525C103.533 45.8525 101.348 44.882 99.5463 42.899V51.2195C99.546 51.2645 99.5367 51.3089 99.519 51.3503C99.5014 51.3916 99.4757 51.4291 99.4434 51.4605C99.4112 51.4919 99.3731 51.5165 99.3313 51.5331C99.2895 51.5497 99.2448 51.5578 99.1999 51.557H94.4718C94.4269 51.5578 94.3822 51.5497 94.3404 51.5331C94.2986 51.5165 94.2605 51.4919 94.2282 51.4605C94.196 51.4291 94.1704 51.3916 94.1527 51.3503C94.135 51.3089 94.1257 51.2645 94.1253 51.2195V24.86C94.1253 24.671 94.2798 24.5195 94.4718 24.5195H99.1999C99.3919 24.5195 99.5463 24.671 99.5463 24.86V27.23C101.348 25.124 103.533 24.095 106.196 24.095C111.146 24.095 116.157 27.83 116.157 34.9745C116.157 42.116 111.146 45.8525 106.196 45.8525ZM105.102 28.8005C101.867 28.8005 99.4279 31.4525 99.4279 34.9745C99.4279 38.495 101.867 41.1485 105.102 41.1485C108.372 41.1485 110.657 38.609 110.657 34.9745C110.657 31.3955 108.32 28.8005 105.102 28.8005ZM83.2323 29.2025C89.6703 30.7355 92.2938 33.1205 92.2938 37.4255C92.2938 42.5195 88.3203 45.8135 82.1763 45.8135C77.8891 45.8355 73.7443 44.276 70.5348 41.4335C70.5013 41.4053 70.4737 41.3706 70.4537 41.3316C70.4337 41.2926 70.4217 41.25 70.4184 41.2063C70.415 41.1626 70.4204 41.1187 70.4342 41.0771C70.448 41.0355 70.47 40.997 70.4988 40.964L73.3908 37.5905C73.4205 37.5559 73.4567 37.5275 73.4974 37.5069C73.5381 37.4863 73.5824 37.4739 73.6278 37.4705C73.7198 37.4641 73.8108 37.4925 73.8828 37.55C76.6968 39.9395 79.2108 40.9565 82.2933 40.9565C85.0698 40.9565 86.7934 39.782 86.7934 37.886C86.7934 36.176 85.9414 35.222 80.8848 34.079C74.9493 32.6705 71.5128 30.848 71.5128 25.6985C71.5128 20.897 75.4968 17.543 81.1983 17.543C85.0758 17.543 88.3968 18.6695 91.3413 20.9885C91.4853 21.101 91.5138 21.3035 91.4088 21.449L88.8304 25.0145C88.7753 25.0895 88.6928 25.1396 88.6008 25.154C88.5087 25.1678 88.4149 25.1446 88.3398 25.0895C85.8648 23.2805 83.5023 22.4015 81.1204 22.4015C78.6634 22.4015 77.0118 23.558 77.0118 25.28C77.0118 27.0995 77.9508 27.968 83.2323 29.2025ZM61.1133 31.997C61.0908 32.3285 61.0698 32.6585 61.0368 32.9855C61.0173 33.1805 60.9888 33.3725 60.9663 33.5645C60.9303 33.86 60.8958 34.154 60.8523 34.445C60.8208 34.649 60.7833 34.8515 60.7473 35.054C60.6993 35.3315 60.6528 35.609 60.5973 35.8835C60.5553 36.0905 60.5073 36.2945 60.4608 36.5C60.4008 36.767 60.3408 37.0325 60.2733 37.2965C60.2208 37.5035 60.1623 37.7075 60.1053 37.913C60.0333 38.171 59.9613 38.429 59.8818 38.6855C59.7412 39.1427 59.5891 39.5964 59.4258 40.046C59.1895 40.6933 58.9319 41.3327 58.6533 41.963C58.4591 42.3951 58.2571 42.8237 58.0473 43.2485C57.9273 43.487 57.8028 43.721 57.6783 43.955C57.5793 44.138 57.4818 44.3195 57.3798 44.501C57.2472 44.7342 57.1117 44.9657 56.9733 45.1955C56.8683 45.3695 56.7648 45.5435 56.6568 45.716C56.5113 45.9485 56.3598 46.1765 56.2068 46.4045C56.0973 46.568 55.9908 46.733 55.8783 46.8935C55.7163 47.1275 55.5468 47.3555 55.3773 47.585C55.2663 47.735 55.1598 47.885 55.0458 48.0335C54.8598 48.2765 54.6663 48.512 54.4713 48.749C54.3678 48.8765 54.2673 49.0055 54.1623 49.1315C53.9239 49.4135 53.6763 49.688 53.4288 49.9625C53.3598 50.036 53.2968 50.114 53.2278 50.1875C52.9053 50.534 52.5768 50.873 52.2378 51.2045C52.1778 51.2645 52.1118 51.3215 52.0503 51.3815C51.7744 51.6494 51.4934 51.912 51.2073 52.169C51.0858 52.2785 50.9598 52.3805 50.8383 52.487C50.6043 52.6895 50.3718 52.892 50.1318 53.087C49.9863 53.2055 49.8378 53.318 49.6908 53.4335C49.4658 53.609 49.2423 53.7845 49.0128 53.9555C48.8523 54.074 48.6888 54.1865 48.5268 54.302L48.0183 54.6575C48.0663 54.623 48.1188 54.5945 48.1683 54.5615C48.1113 54.6005 48.0528 54.6335 47.9958 54.6725C47.9478 54.7055 47.9013 54.74 47.8533 54.7715C47.6808 54.887 47.5068 54.998 47.3328 55.109C47.0367 55.2999 46.7372 55.4855 46.4343 55.6655L46.3293 55.7255C46.3518 55.7135 46.3758 55.7015 46.3968 55.688L46.0833 55.8695C45.8613 55.9985 45.6393 56.1245 45.4143 56.2475L45.1189 56.4035C44.9464 56.495 44.7708 56.585 44.5953 56.6735L44.5038 56.7185C44.3689 56.786 44.2369 56.855 44.1003 56.921C43.9174 57.008 43.7343 57.095 43.5483 57.1805L43.3983 57.2465C43.2333 57.3215 43.0683 57.395 42.9018 57.467L42.8298 57.4985C42.6843 57.5615 42.5358 57.6215 42.3888 57.683C42.1326 57.789 41.8746 57.8905 41.6148 57.9875C41.4394 58.0535 41.2653 58.118 41.0898 58.181L40.8633 58.2635C40.6698 58.331 40.4733 58.3955 40.2768 58.4585C40.1163 58.511 39.9558 58.5635 39.7938 58.613L39.7293 58.6325C39.5553 58.6865 39.3813 58.7375 39.2058 58.787L38.7048 58.928C38.4903 58.985 38.2773 59.0435 38.0613 59.0975L37.9518 59.1215L37.6818 59.1875C37.7298 59.177 37.7748 59.162 37.8228 59.1515L37.5108 59.222C37.5663 59.2085 37.6248 59.201 37.6818 59.1875C37.5498 59.219 37.4163 59.243 37.2843 59.273L37.2648 59.2775C37.0503 59.324 36.8373 59.3735 36.6213 59.4155C36.3979 59.459 36.1728 59.4965 35.9478 59.534C35.8158 59.5565 35.6853 59.585 35.5533 59.606C35.6148 59.5955 35.6748 59.5805 35.7363 59.57L35.4108 59.624C35.4588 59.6165 35.5068 59.6135 35.5533 59.606L35.3328 59.6375L35.1558 59.6675C34.8573 59.711 34.5558 59.744 34.2543 59.78C34.0593 59.8025 33.8643 59.831 33.6663 59.849L33.6213 59.855H33.5928C33.5118 59.8625 33.4279 59.8655 33.3469 59.873C33.1609 59.8895 32.9748 59.9 32.7888 59.9135C32.1573 59.9585 31.5213 59.987 30.8793 59.993C30.8223 59.993 30.7683 60.0005 30.7128 60.0005H30.4833C30.4293 60.0005 30.3783 59.9945 30.3243 59.993C29.6676 59.986 29.0113 59.9584 28.3563 59.9105C28.1778 59.897 27.9978 59.8865 27.8193 59.8715C27.7473 59.864 27.6738 59.8625 27.6003 59.855H27.5733C27.0391 59.8006 26.5064 59.7316 25.9758 59.648C26.0523 59.66 26.1304 59.666 26.2069 59.6765C26.0163 59.648 25.8213 59.6315 25.6323 59.6015L25.3624 59.5535C25.4344 59.5655 25.5048 59.585 25.5768 59.597C25.4478 59.576 25.3218 59.546 25.1928 59.5235L25.1478 59.516C25.0683 59.5025 24.9918 59.483 24.9138 59.4695C24.4059 59.3789 23.9002 59.2759 23.3973 59.1605L23.5413 59.189L23.3043 59.135L23.3973 59.1605C23.1798 59.1095 22.9683 59.045 22.7523 58.988L22.7868 58.997C22.7643 58.9925 22.7433 58.985 22.7208 58.979L22.7523 58.988C22.3158 58.8755 21.8794 58.763 21.4503 58.6325L21.3963 58.6175C21.3378 58.5995 21.2808 58.5785 21.2223 58.559L21.1953 58.55C20.9538 58.4735 20.7168 58.385 20.4768 58.3025L20.7888 58.409C20.6238 58.3535 20.4603 58.295 20.2968 58.2365L20.4768 58.3025C20.1093 58.1765 19.7418 58.0505 19.3818 57.911L19.2003 57.8405C19.1748 57.83 19.1508 57.818 19.1253 57.809C18.8786 57.7096 18.6331 57.6071 18.3888 57.5015C18.5493 57.5705 18.7113 57.635 18.8718 57.701C18.6333 57.6035 18.3963 57.5 18.1608 57.398C18.2373 57.431 18.3123 57.4685 18.3888 57.5015C18.1368 57.3935 17.8818 57.2885 17.6328 57.173L17.5788 57.1505C17.5458 57.1355 17.5113 57.122 17.4783 57.1055C17.3598 57.0515 17.2473 56.9855 17.1303 56.93C16.8903 56.813 16.6503 56.699 16.4133 56.5775C16.6158 56.681 16.8228 56.777 17.0283 56.8775C16.7341 56.734 16.4421 56.586 16.1523 56.4335C16.2408 56.48 16.3248 56.531 16.4133 56.5775C16.2138 56.474 16.0158 56.372 15.8193 56.2655L15.7473 56.228C15.6738 56.189 15.6018 56.1455 15.5298 56.105C15.4353 56.054 15.3468 55.9955 15.2538 55.9415L15.1743 55.8965L15.2148 55.919C14.8893 55.733 14.5683 55.544 14.2518 55.3475C14.3463 55.406 14.4363 55.472 14.5323 55.5305C14.3778 55.4375 14.2278 55.3385 14.0763 55.244L14.0628 55.235L13.8318 55.0895C13.7148 55.0145 13.6038 54.932 13.4883 54.8555C13.2408 54.692 12.9873 54.5375 12.7443 54.3665C12.9258 54.494 13.1193 54.6065 13.3038 54.7295C12.9798 54.5135 12.6528 54.302 12.3378 54.0725L12.4038 54.122C12.3813 54.107 12.3603 54.089 12.3378 54.0725C12.0438 53.8565 11.7573 53.6315 11.4708 53.4065L11.4573 53.396L11.4543 53.3945C11.3283 53.294 11.1993 53.198 11.0733 53.096L11.0718 53.0945L11.0223 53.0525C10.6743 52.7675 10.3293 52.4765 9.99485 52.1765L9.96785 52.154L9.94685 52.1345C9.82385 52.025 9.70985 51.9095 9.58985 51.797C9.35285 51.578 9.11585 51.359 8.88635 51.1325L8.85785 51.1055C8.76335 51.0125 8.67335 50.915 8.58035 50.8205C8.65535 50.897 8.72585 50.978 8.80235 51.053C8.72585 50.9765 8.65385 50.8955 8.57735 50.8175L8.45435 50.6885C8.24585 50.4725 8.03585 50.2595 7.83335 50.0375L7.83035 50.033C7.71485 49.907 7.60235 49.778 7.48985 49.6505L7.40285 49.55C7.0974 49.2013 6.79933 48.8463 6.50885 48.485C6.47885 48.449 6.45035 48.41 6.42185 48.3725C6.13967 48.0188 5.8656 47.6587 5.59985 47.2925C5.56685 47.246 5.53685 47.198 5.50385 47.153C5.33527 46.9156 5.16976 46.6761 5.00735 46.4345C4.92485 46.3115 4.83935 46.1885 4.75835 46.0625C4.72085 46.0055 4.68785 45.947 4.65185 45.89C4.49914 45.6513 4.35012 45.4103 4.20485 45.167C4.18685 45.134 4.16585 45.1025 4.14635 45.071C4.09085 44.9795 4.03385 44.8895 3.97985 44.7965C3.93935 44.7275 3.90335 44.6555 3.86435 44.585C3.72383 44.3359 3.58682 44.0849 3.45335 43.832C3.38885 43.7135 3.32135 43.598 3.25985 43.478C3.22085 43.403 3.18635 43.3265 3.14885 43.2515C3.0159 42.9859 2.88788 42.7178 2.76485 42.4475C2.71535 42.344 2.66285 42.2405 2.61485 42.1355L2.53685 41.954C2.39735 41.642 2.26685 41.3255 2.13935 41.0075L2.03435 40.754L1.99085 40.6355C1.84287 40.2521 1.70333 39.8655 1.57235 39.476L1.52135 39.332L1.50635 39.2855C1.13547 38.1712 0.831926 37.0357 0.597348 35.885L0.585348 35.825C0.561348 35.7065 0.544848 35.5865 0.522348 35.4695C0.456277 35.1296 0.396267 34.7885 0.342348 34.4465L0.319848 34.3145C0.295848 34.1465 0.280848 33.9755 0.259848 33.806C0.217998 33.4987 0.181492 33.1906 0.150348 32.882C0.147348 32.852 0.141348 32.822 0.139848 32.7905C0.135348 32.75 0.136848 32.708 0.133848 32.666C0.0512068 31.7819 0.00866317 30.8945 0.00634766 30.0065C0.00634766 29.621 0.0213477 29.237 0.0363477 28.8545C0.0453477 28.637 0.0543477 28.4195 0.0663477 28.202C0.0843477 27.9125 0.108348 27.626 0.133848 27.3395C0.117348 27.5135 0.0948477 27.6875 0.0828477 27.863C0.0948477 27.686 0.118848 27.512 0.133848 27.335C0.153348 27.119 0.172848 26.9045 0.196848 26.69C0.229848 26.405 0.267348 26.12 0.307848 25.8365C0.337848 25.6235 0.367848 25.412 0.402348 25.202V25.2005C0.448848 24.92 0.501348 24.641 0.555348 24.3635V24.3605C0.595848 24.152 0.636348 23.9435 0.681348 23.7365V23.735C0.742413 23.4591 0.80742 23.1841 0.876348 22.91C0.925848 22.706 0.976848 22.5005 1.03235 22.298V22.295C1.10585 22.025 1.18385 21.7595 1.26485 21.494L1.26635 21.488C1.32635 21.287 1.38635 21.0845 1.45085 20.8865L1.45235 20.882C1.53785 20.6195 1.62935 20.36 1.72235 20.1005L1.72535 20.093C1.79585 19.8965 1.86485 19.7 1.93985 19.505L1.94135 19.5005C2.03885 19.244 2.14235 18.992 2.24585 18.74L2.25035 18.7295C2.32985 18.5375 2.40935 18.344 2.49185 18.1535L2.49485 18.149C2.6072 17.8976 2.72271 17.6475 2.84135 17.399C2.92985 17.2115 3.01685 17.0225 3.10985 16.838L3.11285 16.832C3.23285 16.5905 3.35885 16.3535 3.48635 16.1165L3.49385 16.1015C3.59135 15.92 3.68735 15.7355 3.78935 15.5555L3.79235 15.5495C3.92285 15.317 4.06085 15.0875 4.19735 14.858L4.20785 14.8415C4.31435 14.6645 4.41935 14.486 4.52885 14.3105L4.53335 14.3045C4.67435 14.0795 4.82135 13.859 4.96835 13.6385L4.98035 13.619C5.09585 13.448 5.20835 13.2755 5.32685 13.106L5.33135 13.0985C5.48135 12.8825 5.63885 12.671 5.79485 12.458L5.81135 12.437C5.93435 12.2705 6.05435 12.104 6.18035 11.9405L6.18635 11.933C6.34535 11.726 6.51185 11.5235 6.67835 11.3195L6.69635 11.297C6.82685 11.1365 6.95585 10.976 7.08935 10.8185C7.09088 10.8157 7.09292 10.8131 7.09535 10.811C7.26335 10.613 7.43885 10.418 7.61285 10.2245L7.63535 10.2005C7.77335 10.046 7.90835 9.89151 8.04935 9.74001L8.05685 9.73401C8.23385 9.54351 8.41835 9.35901 8.59985 9.17451L8.62535 9.14901C8.77085 9.00201 8.91335 8.85351 9.06185 8.70951C9.06428 8.70739 9.06631 8.70485 9.06785 8.70201L9.12185 8.64801L9.07085 8.70051C9.23135 8.54451 9.39785 8.39451 9.56135 8.24151C9.42635 8.36751 9.28685 8.48901 9.15335 8.61651C9.31085 8.46501 9.47585 8.31951 9.63635 8.17101L9.66485 8.14551C9.81785 8.00451 9.96785 7.86201 10.1223 7.72551L10.1298 7.71951C10.2963 7.57101 10.4703 7.43001 10.6413 7.28451C10.4973 7.40601 10.3503 7.52151 10.2093 7.64601C10.3773 7.49901 10.5513 7.35951 10.7208 7.21701C10.7315 7.20764 10.7425 7.19864 10.7538 7.19001C10.9113 7.05801 11.0673 6.92301 11.2278 6.79401L11.2353 6.78801L11.3133 6.72351L11.2368 6.78651C11.4108 6.64701 11.5893 6.51351 11.7663 6.37851C11.6163 6.49401 11.4618 6.60501 11.3133 6.72351C11.4888 6.58251 11.6718 6.44901 11.8518 6.31251L11.8863 6.28551C12.0513 6.16101 12.2118 6.03501 12.3783 5.91351L12.3843 5.90901L12.4608 5.85201L12.3888 5.90601C12.5703 5.77401 12.7548 5.64951 12.9378 5.52201C12.7803 5.63301 12.6168 5.73801 12.4608 5.85201C12.6453 5.71701 12.8373 5.59101 13.0263 5.46201L13.0653 5.43501C13.2333 5.31801 13.3998 5.19951 13.5708 5.08701L13.5768 5.08251L13.6503 5.03301L13.5843 5.07801C13.7718 4.95501 13.9653 4.83951 14.1543 4.71951C13.9878 4.82451 13.8153 4.92501 13.6503 5.03301C13.8453 4.90551 14.0448 4.78701 14.2428 4.66401L14.2863 4.63851C14.4588 4.53051 14.6298 4.41951 14.8053 4.31601L14.8113 4.31301C14.8343 4.29763 14.8578 4.28312 14.8818 4.26951L14.8218 4.30701C15.0168 4.19151 15.2163 4.08351 15.4143 3.97251C15.2373 4.07151 15.0558 4.16601 14.8818 4.26951C15.0843 4.14951 15.2943 4.03851 15.4998 3.92451L15.5478 3.89751C15.7248 3.80001 15.8988 3.69801 16.0773 3.60201C16.0796 3.6016 16.0817 3.60056 16.0833 3.59901L16.1508 3.56301L16.0968 3.59301C16.3008 3.48501 16.5108 3.38451 16.7163 3.28101C16.5288 3.37551 16.3368 3.46401 16.1508 3.56301C16.3638 3.45051 16.5813 3.34851 16.7958 3.24051C16.8138 3.23291 16.8313 3.2244 16.8483 3.21501C17.0283 3.12651 17.2053 3.03351 17.3883 2.94801L17.3928 2.94501L17.4573 2.91351L17.4108 2.93751C17.6253 2.83701 17.8443 2.74401 18.0618 2.64801C17.8608 2.73801 17.6568 2.82051 17.4573 2.91351C17.6793 2.81001 17.9058 2.71701 18.1308 2.61801L18.1878 2.59251C18.3693 2.51301 18.5493 2.42901 18.7338 2.35401L18.7383 2.35101C18.7586 2.34315 18.7786 2.33464 18.7983 2.32551L18.7593 2.34351C18.9873 2.24901 19.2198 2.16501 19.4508 2.07651C19.2333 2.15901 19.0143 2.23851 18.7983 2.32551C19.0293 2.23101 19.2663 2.14701 19.5003 2.05701L19.5648 2.03301C19.7478 1.96251 19.9278 1.88901 20.1138 1.82151H20.1168C20.1355 1.81361 20.1545 1.8066 20.1738 1.80051L20.1408 1.81251C20.3883 1.72401 20.6418 1.64601 20.8923 1.56351C20.6523 1.64301 20.4108 1.71651 20.1738 1.80051C20.4153 1.71501 20.6613 1.64001 20.9043 1.55901L20.9793 1.53501C21.1623 1.47501 21.3408 1.41051 21.5238 1.35501H21.5268L21.5793 1.33851L21.5538 1.34751C21.8148 1.26801 22.0803 1.19901 22.3428 1.12701L22.3023 1.13901L22.4073 1.10901L22.4988 1.08351C22.6548 1.04151 22.8078 0.995008 22.9653 0.954508H22.9668L23.0133 0.942508L22.9983 0.947008C23.2683 0.879508 23.5428 0.822508 23.8158 0.762508L23.7198 0.783508C23.8578 0.752008 23.9944 0.719008 24.1339 0.690508L24.2658 0.660508C24.3228 0.648508 24.3783 0.633508 24.4338 0.623008L24.4353 0.621508L24.4758 0.615508L24.4698 0.617008C24.7518 0.560008 25.0383 0.515008 25.3248 0.467008L25.1718 0.492508C25.4268 0.449008 25.6788 0.398008 25.9338 0.360508L25.9353 0.359008L25.9608 0.356008H25.9668C26.1948 0.321508 26.4273 0.299008 26.6568 0.269008C26.5023 0.288508 26.3448 0.306508 26.1903 0.327508C26.4183 0.296008 26.6493 0.269008 26.8788 0.242008L26.6568 0.269008C26.9223 0.236008 27.1863 0.197008 27.4548 0.170008H27.4564L27.4879 0.167008H27.4893C27.7158 0.144508 27.9453 0.132508 28.1733 0.116008L27.9498 0.132508C28.1388 0.117508 28.3263 0.102508 28.5153 0.0905076L28.1733 0.116008C28.4478 0.0950076 28.7208 0.0680076 28.9968 0.0545076H28.9983L29.0328 0.0530076C29.2608 0.0410076 29.4918 0.0410076 29.7198 0.0350076L29.5923 0.0380076C29.9268 0.0275076 30.2598 0.0140076 30.5973 0.0140076C47.4933 0.0140076 61.1883 13.4405 61.1883 30.0065C61.1883 30.509 61.1733 31.0085 61.1493 31.505C61.1403 31.67 61.1238 31.8335 61.1133 31.997ZM12.8493 39.6005C13.0818 40.6055 14.1063 41.2355 15.1323 41.0045C25.7794 38.6195 34.8214 39.5915 42.0033 43.8965C42.9034 44.4335 44.0778 44.159 44.6268 43.2725C44.7571 43.0632 44.8441 42.83 44.8828 42.5865C44.9214 42.3431 44.9109 42.0943 44.8519 41.855C44.7929 41.6157 44.6866 41.3906 44.5392 41.193C44.3919 40.9954 44.2064 40.8293 43.9939 40.7045C35.9299 35.8715 25.9353 34.748 14.2818 37.361C14.0396 37.4119 13.81 37.5106 13.6064 37.6513C13.4028 37.7919 13.2292 37.9718 13.0958 38.1803C12.9625 38.3888 12.872 38.6217 12.8297 38.8656C12.7873 39.1094 12.794 39.3593 12.8493 39.6005ZM11.6283 30.824C12.0123 32.0585 13.3443 32.7545 14.6073 32.381C24.3333 29.4875 36.8688 30.9215 45.0888 35.8775C46.2093 36.551 47.6793 36.2075 48.3693 35.1095C48.5328 34.8479 48.6423 34.5562 48.6914 34.2516C48.7405 33.947 48.7283 33.6357 48.6553 33.3359C48.5824 33.0361 48.4502 32.754 48.2666 32.506C48.0831 32.258 47.8518 32.0493 47.5863 31.892C38.1423 26.2055 24.3318 24.602 13.2198 27.908C12.9229 27.9934 12.6458 28.1369 12.4047 28.3301C12.1636 28.5233 11.9632 28.7625 11.8152 29.0337C11.6672 29.3049 11.5744 29.6028 11.5424 29.9101C11.5103 30.2174 11.5395 30.5281 11.6283 30.824ZM51.6123 21.7775C40.2603 15.17 22.2978 14.549 11.4918 17.7665C11.1354 17.8685 10.8029 18.0404 10.5135 18.2722C10.2242 18.504 9.98382 18.7909 9.80641 19.1164C9.629 19.442 9.51809 19.7995 9.48014 20.1683C9.44219 20.537 9.47795 20.9097 9.58535 21.2645C10.0428 22.748 11.6403 23.5835 13.1538 23.1335C22.5663 20.333 38.8308 20.8625 48.6933 26.603C49.3455 26.9837 50.1208 27.094 50.8533 26.9104C51.5858 26.7268 52.2173 26.2638 52.6128 25.6205C52.8043 25.3038 52.9305 24.9519 52.9838 24.5856C53.0371 24.2194 53.0165 23.8461 52.9233 23.488C52.83 23.1298 52.666 22.7939 52.4408 22.5001C52.2157 22.2064 51.934 21.9607 51.6123 21.7775ZM30.5163 0.0140076H30.5973C30.3033 0.0140076 30.0123 0.0275076 29.7198 0.0350076C29.9853 0.0275076 30.2493 0.0140076 30.5163 0.0140076ZM161.558 24.5195C161.75 24.5195 161.904 24.671 161.904 24.86V45.0875C161.904 45.1787 161.867 45.266 161.802 45.3301C161.737 45.3941 161.649 45.4299 161.558 45.4295H156.828C156.737 45.4299 156.649 45.3941 156.584 45.3301C156.52 45.266 156.483 45.1787 156.482 45.0875V24.86C156.482 24.671 156.638 24.5195 156.828 24.5195H161.558ZM194.996 39.0095C196.683 39.0095 197.996 40.3565 197.996 41.9915C197.994 42.7893 197.675 43.5536 197.11 44.1165C196.544 44.6793 195.779 44.9946 194.981 44.993C194.587 44.9958 194.197 44.9206 193.833 44.7718C193.468 44.6229 193.137 44.4034 192.858 44.1259C192.579 43.8484 192.358 43.5184 192.207 43.1549C192.056 42.7913 191.979 42.4016 191.979 42.008C191.979 40.3715 193.31 39.0095 194.996 39.0095ZM194.981 44.693C195.337 44.6964 195.689 44.6289 196.019 44.4943C196.348 44.3598 196.647 44.1609 196.899 43.9093C197.15 43.6578 197.349 43.3586 197.484 43.0293C197.618 42.7 197.686 42.3472 197.682 41.9915C197.686 41.6377 197.62 41.2866 197.486 40.9589C197.352 40.6312 197.155 40.3336 196.904 40.0834C196.654 39.8333 196.356 39.6357 196.029 39.5023C195.701 39.3688 195.35 39.3023 194.996 39.3065C193.46 39.3065 192.296 40.52 192.296 42.008C192.296 43.496 193.451 44.693 194.981 44.693ZM196.392 41.348C196.392 41.8595 196.094 42.1745 195.66 42.299L196.509 43.4795H195.794L195.03 42.395H194.373V43.4795H193.773V40.349H195.179C195.911 40.349 196.392 40.721 196.392 41.348ZM194.373 40.8845V41.876H195.155C195.545 41.876 195.777 41.687 195.777 41.3795C195.777 41.0585 195.545 40.8845 195.155 40.8845H194.373Z" fill="white"/>
</svg>
