<svg width="58" height="55" viewBox="0 0 58 55" fill="none" xmlns="http://www.w3.org/2000/svg">
<path fill-rule="evenodd" clip-rule="evenodd" d="M28.9395 54.7253C44.5066 54.7253 57.1263 42.4746 57.1263 27.3626C57.1263 12.2507 44.5066 0 28.9395 0C13.3724 0 0.752686 12.2507 0.752686 27.3626C0.752686 42.4746 13.3724 54.7253 28.9395 54.7253ZM20.4835 16.4176C19.9645 16.4176 19.5439 16.8259 19.5439 17.3297V37.3956C19.5439 37.8994 19.9645 38.3077 20.4835 38.3077H24.2417C24.7606 38.3077 25.1813 37.8994 25.1813 37.3956V17.3297C25.1813 16.8259 24.7606 16.4176 24.2417 16.4176H20.4835ZM33.6373 16.4176C33.1184 16.4176 32.6977 16.8259 32.6977 17.3297V37.3956C32.6977 37.8994 33.1184 38.3077 33.6373 38.3077H37.3955C37.9145 38.3077 38.3351 37.8994 38.3351 37.3956V17.3297C38.3351 16.8259 37.9145 16.4176 37.3955 16.4176H33.6373Z" fill="#1ED760"/>
</svg>
