<svg width="24" height="23" viewBox="0 0 24 23" fill="none" xmlns="http://www.w3.org/2000/svg">
<path d="M20.4506 4.91758L15.9506 7.51572V5.41758H7.95056C4.63684 5.41758 1.95056 8.10386 1.95056 11.4176C1.95056 12.5846 2.2832 13.6722 2.85864 14.5929L2.01074 15.1229C1.33875 14.048 0.950562 12.7774 0.950562 11.4176C0.950562 7.55161 4.08459 4.41758 7.95056 4.41758H15.9506V2.31944L20.4506 4.91758Z" fill="white"/>
<path d="M22.9506 11.4176C22.9506 10.3631 22.679 9.37363 22.2024 8.51377L23.077 8.02891C23.6338 9.03355 23.9506 10.1893 23.9506 11.4176C23.9506 15.2835 20.8165 18.4176 16.9506 18.4176H7.95056V20.5157L3.45056 17.9176L7.95056 15.3194V17.4176H16.9506C20.2643 17.4176 22.9506 14.7313 22.9506 11.4176Z" fill="white"/>
</svg>
