<svg width="23" height="23" viewBox="0 0 23 23" fill="none" xmlns="http://www.w3.org/2000/svg">
<path fill-rule="evenodd" clip-rule="evenodd" d="M11.1367 6.91199C12.5129 5.7393 13.5 4.91757 17 4.91757V5.91757C14 5.91757 13.0496 6.59584 11.7852 7.67315C10.5114 8.75854 9.37033 10.2156 8.20851 11.7228C8.16178 11.7834 8.11502 11.8441 8.0682 11.9049C6.96595 13.3358 5.83786 14.8002 4.59114 15.9153C3.28305 17.0852 1.79404 17.9176 0 17.9176V16.9176C1.45596 16.9176 2.71695 16.2499 3.92448 15.1699C5.1003 14.1182 6.1775 12.7203 7.30122 11.2619C7.33959 11.2121 7.37801 11.1622 7.4165 11.1123C8.56717 9.61955 9.76986 8.0766 11.1367 6.91199Z" fill="white"/>
<path d="M21 5.41758L16.5 8.01566L16.5 2.8195L21 5.41758Z" fill="white"/>
<path d="M21 17.4176L16.5 20.0156L16.5 14.8195L21 17.4176Z" fill="white"/>
<path d="M17 17.9176C13.5 17.9176 12.5129 17.0958 11.1367 15.9232C10.472 15.3568 9.84606 14.7009 9.24609 14.0049L10.0199 13.3709C10.5889 14.0302 11.1717 14.6392 11.7852 15.162C13.0496 16.2393 13.5 16.9176 17 16.9176V17.9176Z" fill="white"/>
<path d="M6.22575 8.62027C5.69957 8.0053 5.1576 7.42654 4.59114 6.91989C3.28305 5.74992 1.79404 4.91757 0 4.91757V5.91757C1.45596 5.91757 2.71695 6.58522 3.92448 7.66525C4.44903 8.13441 4.95394 8.67249 5.45212 9.2541L6.22575 8.62027Z" fill="white"/>
</svg>
