<svg width="15" height="15" viewBox="0 0 15 15" fill="none" xmlns="http://www.w3.org/2000/svg">
<path fill-rule="evenodd" clip-rule="evenodd" d="M14.9816 7.99755C14.9761 8.08044 14.9709 8.16296 14.9629 8.24473C14.9581 8.29349 14.9511 8.3415 14.9456 8.38951C14.9367 8.4634 14.9283 8.53692 14.9176 8.60969C14.9099 8.6607 14.9007 8.71134 14.8919 8.76197C14.8801 8.83136 14.8687 8.90075 14.8551 8.96939C14.8448 9.02115 14.833 9.07217 14.8216 9.12355C14.8069 9.19032 14.7922 9.25671 14.7757 9.32272C14.7628 9.37448 14.7485 9.4255 14.7345 9.47688C14.7168 9.5414 14.6992 9.60591 14.6797 9.67005C14.6452 9.78438 14.6079 9.89782 14.5679 10.0103C14.51 10.1721 14.4468 10.332 14.3785 10.4896C14.3309 10.5977 14.2813 10.7048 14.2299 10.8111C14.2005 10.8707 14.17 10.9292 14.1395 10.9877C14.1152 11.0335 14.0913 11.0789 14.0663 11.1243C14.0338 11.1826 14.0005 11.2405 13.9666 11.2979C13.9409 11.3414 13.9155 11.3849 13.889 11.4281C13.8533 11.4862 13.8162 11.5432 13.7787 11.6002C13.7518 11.6411 13.7257 11.6824 13.6981 11.7225C13.6584 11.781 13.6169 11.838 13.5753 11.8954C13.5481 11.9329 13.522 11.9704 13.494 12.0076C13.4484 12.0683 13.401 12.1272 13.3532 12.1865C13.3278 12.2184 13.3032 12.2506 13.2774 12.2821C13.219 12.3527 13.1583 12.4213 13.0976 12.4899C13.0807 12.5083 13.0652 12.5278 13.0483 12.5462C12.9693 12.6328 12.8887 12.7176 12.8056 12.8005C12.7909 12.8155 12.7747 12.8298 12.7596 12.8448C12.692 12.9118 12.6231 12.9774 12.553 13.0417C12.5232 13.0691 12.4923 13.0946 12.4625 13.1212C12.4051 13.1718 12.3481 13.2225 12.2893 13.2712C12.2536 13.3009 12.2172 13.329 12.1812 13.3579C12.126 13.4018 12.0712 13.4457 12.0149 13.4884C11.9756 13.518 11.9355 13.5462 11.8958 13.5751L11.7711 13.664C11.7829 13.6553 11.7957 13.6482 11.8079 13.6399C11.7939 13.6497 11.7796 13.6579 11.7656 13.6677C11.7538 13.676 11.7424 13.6846 11.7307 13.6925C11.6884 13.7213 11.6457 13.7491 11.603 13.7769C11.5304 13.8246 11.457 13.871 11.3828 13.916L11.357 13.931C11.3625 13.928 11.3684 13.925 11.3736 13.9216L11.2967 13.967C11.2423 13.9993 11.1878 14.0308 11.1327 14.0615L11.0602 14.1005C11.0179 14.1234 10.9749 14.1459 10.9319 14.1681L10.9095 14.1793C10.8764 14.1962 10.844 14.2134 10.8105 14.23C10.7657 14.2517 10.7208 14.2735 10.6752 14.2948L10.6384 14.3113C10.598 14.3301 10.5575 14.3485 10.5167 14.3665L10.499 14.3744C10.4634 14.3901 10.427 14.4051 10.3909 14.4205C10.3281 14.447 10.2648 14.4724 10.2012 14.4966C10.1581 14.5131 10.1155 14.5293 10.0724 14.545L10.0169 14.5657C9.96948 14.5825 9.9213 14.5987 9.87313 14.6144C9.83378 14.6275 9.79443 14.6407 9.75471 14.653L9.73889 14.6579C9.69623 14.6714 9.65357 14.6842 9.61055 14.6966L9.48772 14.7318C9.43513 14.7461 9.38291 14.7607 9.32995 14.7742L9.3031 14.7802L9.23691 14.7967C9.24868 14.7941 9.25971 14.7903 9.27148 14.7877L9.19499 14.8053C9.20859 14.802 9.22293 14.8001 9.23691 14.7967C9.20455 14.8046 9.17182 14.8106 9.13945 14.8181L9.13467 14.8192C9.08208 14.8308 9.02986 14.8432 8.97691 14.8537C8.92211 14.8646 8.86695 14.874 8.81178 14.8833C8.77942 14.889 8.74743 14.8961 8.71506 14.9014C8.73014 14.8987 8.74485 14.895 8.75993 14.8924L8.68013 14.9059C8.6919 14.904 8.70366 14.9032 8.71506 14.9014L8.661 14.9092L8.61761 14.9167C8.54443 14.9276 8.47051 14.9359 8.39659 14.9449C8.34878 14.9505 8.30097 14.9576 8.25243 14.9621L8.2414 14.9636H8.23441C8.21455 14.9655 8.19396 14.9662 8.1741 14.9681C8.1285 14.9722 8.08289 14.9749 8.03729 14.9782C7.88247 14.9895 7.72654 14.9966 7.56914 14.9981C7.55516 14.9981 7.54193 15 7.52832 15H7.47205C7.45881 15 7.44631 14.9985 7.43307 14.9981C7.27207 14.9964 7.11116 14.9895 6.95057 14.9775C6.90681 14.9741 6.86268 14.9715 6.81892 14.9677C6.80127 14.9659 6.78325 14.9655 6.76523 14.9636H6.75861C6.62761 14.95 6.49701 14.9328 6.36695 14.9119C6.3857 14.9149 6.40483 14.9164 6.42358 14.919C6.37688 14.9119 6.32907 14.9077 6.28273 14.9002L6.21654 14.8882C6.23419 14.8912 6.25147 14.8961 6.26912 14.8991C6.2375 14.8939 6.20661 14.8863 6.17498 14.8807L6.16395 14.8788C6.14445 14.8755 6.1257 14.8706 6.10658 14.8672C5.98204 14.8446 5.85807 14.8188 5.73478 14.79L5.77008 14.7971L5.71197 14.7836L5.73478 14.79C5.68145 14.7772 5.6296 14.7611 5.57664 14.7468L5.5851 14.7491C5.57958 14.7479 5.57443 14.7461 5.56892 14.7446L5.57664 14.7468C5.46962 14.7187 5.36261 14.6906 5.25743 14.6579L5.24419 14.6542C5.22985 14.6497 5.21587 14.6444 5.20153 14.6395L5.19491 14.6373C5.1357 14.6182 5.0776 14.596 5.01876 14.5754L5.09525 14.602C5.0548 14.5882 5.01471 14.5735 4.97463 14.5589L5.01876 14.5754C4.92866 14.5439 4.83856 14.5124 4.75029 14.4775L4.7058 14.4599C4.69954 14.4573 4.69366 14.4543 4.68741 14.452C4.62691 14.4271 4.56671 14.4015 4.50684 14.3751C4.54619 14.3924 4.58591 14.4085 4.62526 14.425C4.56679 14.4006 4.50868 14.3747 4.45094 14.3492C4.4697 14.3575 4.48809 14.3669 4.50684 14.3751C4.44506 14.3481 4.38254 14.3218 4.32149 14.293L4.30825 14.2873C4.30016 14.2836 4.2917 14.2802 4.28361 14.2761C4.25456 14.2626 4.22698 14.2461 4.19829 14.2322C4.13945 14.2029 4.08061 14.1744 4.02251 14.1441C4.07215 14.1699 4.1229 14.1939 4.17329 14.2191C4.10114 14.1832 4.02955 14.1462 3.95852 14.1081C3.98022 14.1197 4.00081 14.1324 4.02251 14.1441C3.9736 14.1182 3.92505 14.0927 3.87688 14.066L3.85922 14.0567C3.8412 14.0469 3.82355 14.036 3.8059 14.0259C3.78273 14.0132 3.76103 13.9985 3.73823 13.985L3.71874 13.9738L3.72867 13.9794C3.64887 13.9329 3.57017 13.8856 3.49257 13.8365C3.51574 13.8511 3.53781 13.8676 3.56134 13.8822C3.52346 13.859 3.48669 13.8342 3.44954 13.8106L3.44623 13.8084L3.3896 13.772C3.36092 13.7532 3.3337 13.7326 3.30538 13.7135C3.2447 13.6726 3.18255 13.6339 3.12298 13.5912C3.16748 13.6231 3.21492 13.6512 3.26015 13.682C3.18072 13.6279 3.10054 13.5751 3.02332 13.5177L3.0395 13.53C3.03398 13.5263 3.02883 13.5218 3.02332 13.5177C2.95124 13.4637 2.88099 13.4074 2.81075 13.3511L2.80744 13.3485L2.80671 13.3481C2.77582 13.323 2.74419 13.299 2.7133 13.2735L2.71293 13.2731L2.70079 13.2626C2.61548 13.1913 2.53089 13.1186 2.44888 13.0436L2.44226 13.0379L2.43711 13.0331C2.40696 13.0057 2.37901 12.9768 2.34959 12.9487C2.29148 12.8939 2.23338 12.8391 2.17711 12.7825L2.17012 12.7757C2.14696 12.7525 2.12489 12.7281 2.10209 12.7045C2.12048 12.7236 2.13776 12.7439 2.15652 12.7626C2.13776 12.7435 2.12011 12.7232 2.10135 12.7037L2.0712 12.6715C2.02008 12.6175 1.96859 12.5642 1.91895 12.5087L1.91821 12.5076C1.88989 12.4761 1.86231 12.4438 1.83473 12.4119L1.8134 12.3868C1.73851 12.2996 1.66544 12.2108 1.59422 12.1205C1.58686 12.1115 1.57988 12.1017 1.57289 12.0923C1.50371 12.0039 1.43651 11.9139 1.37136 11.8223C1.36327 11.8107 1.35591 11.7987 1.34782 11.7874C1.30649 11.728 1.26591 11.6682 1.2261 11.6077C1.20587 11.577 1.18491 11.5462 1.16505 11.5147C1.15585 11.5005 1.14776 11.4858 1.13894 11.4716C1.1015 11.4119 1.06496 11.3516 1.02935 11.2908C1.02493 11.2825 1.01979 11.2747 1.015 11.2668C1.0014 11.2439 0.987423 11.2214 0.974184 11.1981C0.964254 11.1809 0.955428 11.1629 0.945867 11.1453C0.911417 11.083 0.877825 11.0202 0.845102 10.957C0.829288 10.9273 0.812739 10.8985 0.797661 10.8684C0.7881 10.8497 0.779641 10.8306 0.770447 10.8118C0.737853 10.7454 0.706466 10.6784 0.676302 10.6108C0.664166 10.5849 0.651295 10.559 0.639526 10.5327L0.620403 10.4874C0.586202 10.4093 0.554207 10.3302 0.522948 10.2507L0.497205 10.1873L0.48654 10.1577C0.45026 10.0618 0.41605 9.96512 0.383936 9.86772L0.371433 9.83171L0.367755 9.82008C0.276828 9.54146 0.202407 9.25751 0.144896 8.96977L0.141954 8.95476C0.136069 8.92513 0.132024 8.89513 0.126508 8.86587C0.110309 8.78088 0.0955966 8.69559 0.0823772 8.61006L0.0768608 8.57705C0.0709768 8.53505 0.0672992 8.49228 0.0621506 8.4499C0.0518903 8.37305 0.0429402 8.29602 0.0353045 8.21885C0.034569 8.21135 0.033098 8.20385 0.0327302 8.19597C0.031627 8.18584 0.0319947 8.17534 0.0312592 8.16484C0.0109981 7.94376 0.000567694 7.72185 0 7.49981C0 7.40342 0.00367755 7.30739 0.0073551 7.21175C0.00956164 7.15736 0.0117682 7.10297 0.0147102 7.04859C0.0191233 6.97619 0.0250074 6.90455 0.0312592 6.83291C0.0272139 6.87642 0.0216976 6.91993 0.0187555 6.96382C0.0216976 6.91956 0.0275816 6.87605 0.0312592 6.83179C0.03604 6.77777 0.0408208 6.72414 0.0467049 6.6705C0.0547955 6.59923 0.0639894 6.52797 0.0739188 6.45708C0.0812739 6.40382 0.088629 6.35093 0.0970874 6.29842V6.29804C0.108488 6.2279 0.121359 6.15814 0.134598 6.08875V6.08799C0.144528 6.03586 0.154457 5.98372 0.16549 5.93196V5.93158C0.180461 5.86259 0.196399 5.79382 0.213298 5.72529C0.225434 5.67428 0.237938 5.62289 0.251545 5.57225V5.5715C0.269565 5.50399 0.288688 5.4376 0.308547 5.37121L0.308914 5.36971C0.323625 5.31945 0.338335 5.26881 0.354148 5.2193L0.354516 5.21817C0.375478 5.15253 0.397911 5.08764 0.420712 5.02276L0.421448 5.02088C0.438732 4.97174 0.455649 4.92261 0.474037 4.87385L0.474404 4.87272C0.498308 4.80858 0.523684 4.74557 0.549059 4.68255L0.550162 4.67993C0.569653 4.63192 0.589144 4.58353 0.60937 4.5359L0.610106 4.53477C0.637651 4.4719 0.66597 4.40938 0.695057 4.34723C0.716755 4.30034 0.738085 4.25308 0.760886 4.20695L0.761621 4.20545C0.791042 4.14506 0.821933 4.08579 0.853192 4.02653L0.855031 4.02278C0.878935 3.9774 0.902471 3.93126 0.927479 3.88625L0.928214 3.88475C0.960209 3.82661 0.994042 3.76922 1.02751 3.71184L1.03008 3.70771C1.05619 3.66345 1.08194 3.61881 1.10878 3.57493L1.10989 3.57343C1.14445 3.51717 1.18049 3.46203 1.21653 3.40689L1.21948 3.40202C1.24779 3.35926 1.27538 3.31612 1.30443 3.27374L1.30553 3.27186C1.34231 3.21785 1.38092 3.16496 1.41917 3.1117L1.42321 3.10645C1.45337 3.06481 1.48279 3.02318 1.51368 2.9823L1.51515 2.98042C1.55413 2.92866 1.59495 2.87802 1.63578 2.82701L1.64019 2.82139C1.67218 2.78125 1.70381 2.74112 1.73654 2.70173C1.73692 2.70102 1.73741 2.70039 1.73801 2.69986C1.7792 2.65035 1.82223 2.60159 1.86489 2.5532L1.8704 2.5472C1.90424 2.50856 1.93733 2.46993 1.9719 2.43205L1.97374 2.43055C2.01714 2.38291 2.06237 2.33678 2.10687 2.29064L2.11312 2.28426C2.14879 2.24751 2.18373 2.21037 2.22014 2.17436C2.22073 2.17383 2.22123 2.1732 2.22161 2.17249L2.23485 2.15899L2.22234 2.17211C2.26169 2.13311 2.30252 2.0956 2.3426 2.05734C2.3095 2.08885 2.2753 2.11923 2.24257 2.15111C2.28119 2.11323 2.32164 2.07684 2.36099 2.03971L2.36798 2.03333C2.40549 1.99807 2.44226 1.96244 2.48014 1.92831L2.48198 1.92681C2.5228 1.88968 2.56546 1.85442 2.60738 1.81803C2.57208 1.84842 2.53604 1.8773 2.50147 1.90843C2.54266 1.87167 2.58532 1.83679 2.62688 1.80116C2.6295 1.79881 2.6322 1.79656 2.63497 1.7944C2.67358 1.7614 2.71183 1.72764 2.75118 1.69538L2.75302 1.69388L2.77214 1.67775L2.75338 1.69351C2.79604 1.65862 2.83981 1.62524 2.8832 1.59148C2.84643 1.62036 2.80855 1.64812 2.77214 1.67775C2.81517 1.64249 2.86003 1.60911 2.90416 1.57498L2.91262 1.56823C2.95307 1.5371 2.99242 1.50559 3.03325 1.47521L3.03472 1.47408L3.05347 1.45983L3.03582 1.47333C3.08032 1.44032 3.12555 1.40919 3.17042 1.37731C3.1318 1.40507 3.09172 1.43132 3.05347 1.45983C3.09871 1.42607 3.14578 1.39456 3.19212 1.36231L3.20168 1.35555C3.24287 1.3263 3.28369 1.29667 3.32561 1.26854L3.32708 1.26741L3.3451 1.25503L3.32892 1.26628C3.37489 1.23553 3.42233 1.20665 3.46867 1.17664C3.42785 1.2029 3.38555 1.22803 3.3451 1.25503C3.39291 1.22315 3.44182 1.19352 3.49037 1.16276L3.50103 1.15639C3.54332 1.12938 3.58525 1.10162 3.62827 1.07574L3.62974 1.07499C3.63537 1.07115 3.64114 1.06752 3.64703 1.06411L3.63232 1.07349C3.68013 1.04461 3.72904 1.0176 3.77758 0.989848C3.73419 1.0146 3.68969 1.03823 3.64703 1.06411C3.69668 1.03411 3.74816 1.00635 3.79854 0.977845L3.81031 0.971093C3.85371 0.946713 3.89637 0.921207 3.94013 0.897202L3.9416 0.896452L3.95815 0.88745L3.94491 0.894951C3.99493 0.867945 4.04641 0.842815 4.09679 0.816934C4.05082 0.840564 4.00375 0.862694 3.95815 0.88745C4.01037 0.859318 4.0637 0.833813 4.11628 0.806807C4.12068 0.804908 4.12498 0.80278 4.12916 0.80043C4.17329 0.7783 4.21668 0.755045 4.26155 0.733665L4.26265 0.732915L4.27846 0.725038L4.26706 0.73104C4.31965 0.705909 4.37335 0.682654 4.42667 0.658648C4.37739 0.681153 4.32738 0.701783 4.27846 0.725038C4.33289 0.699157 4.38842 0.675902 4.44359 0.651147L4.45756 0.64477C4.50206 0.624891 4.54619 0.603886 4.59142 0.585132L4.59253 0.584382C4.5975 0.582416 4.6024 0.580289 4.60724 0.578005L4.59768 0.582506C4.65357 0.558876 4.71058 0.537871 4.76721 0.515741C4.71389 0.536371 4.66019 0.55625 4.60724 0.578005C4.66387 0.554375 4.72198 0.53337 4.77935 0.510865L4.79516 0.504864C4.84003 0.487235 4.88416 0.468856 4.92976 0.451977H4.93049C4.93507 0.450001 4.93973 0.448249 4.94447 0.446726L4.93638 0.449726C4.99706 0.427596 5.05921 0.408092 5.12062 0.387462C5.06178 0.407342 5.00257 0.425721 4.94447 0.446726C5.00368 0.425346 5.06399 0.406592 5.12357 0.386337L5.14195 0.380336C5.18682 0.365332 5.23058 0.349204 5.27545 0.335325H5.27618L5.28906 0.3312L5.2828 0.33345C5.34679 0.313571 5.41189 0.296317 5.47624 0.278313L5.46631 0.281313L5.49206 0.273812L5.51449 0.267435C5.55274 0.256933 5.59025 0.245305 5.62886 0.235178H5.62923L5.64063 0.232177L5.63695 0.233302C5.70315 0.216424 5.77045 0.20217 5.83738 0.187167L5.81384 0.192418C5.84768 0.184542 5.88114 0.17629 5.91534 0.169163L5.94771 0.161661C5.96168 0.158661 5.97529 0.15491 5.98889 0.152284L5.98926 0.151909L5.99919 0.150409L5.99772 0.150784C6.06686 0.136531 6.1371 0.125278 6.20734 0.113275L6.16983 0.119652C6.23235 0.108774 6.29413 0.0960216 6.35665 0.0866445L6.35702 0.0862694L6.36327 0.0855192H6.36474C6.42064 0.0768923 6.47764 0.071266 6.53391 0.0637643C6.49603 0.0686404 6.45741 0.0731414 6.41954 0.0783926C6.47543 0.0705159 6.53207 0.0637643 6.58834 0.0570128L6.53391 0.0637643C6.599 0.0555125 6.66372 0.0457603 6.72955 0.0390088H6.72992L6.73764 0.0382586H6.73801C6.79354 0.0326323 6.84981 0.0296317 6.90571 0.0255057L6.85091 0.0296317C6.89725 0.0258808 6.94322 0.02213 6.98956 0.0191293L6.90571 0.0255057C6.97301 0.0202546 7.03994 0.013503 7.10761 0.0101273H7.10797L7.11643 0.0097522C7.17233 0.00675152 7.22896 0.00675152 7.28486 0.00525118L7.2536 0.00600135C7.33561 0.00337576 7.41726 0 7.5 0C11.6424 0 15 3.35738 15 7.49981C15 7.62547 14.9963 7.75037 14.9904 7.87452C14.9882 7.91578 14.9842 7.95666 14.9816 7.99755ZM3.14872 9.89885C3.20572 10.1502 3.4569 10.3077 3.70844 10.2499C6.31877 9.65355 8.5356 9.8966 10.2964 10.9731C10.5171 11.1074 10.805 11.0387 10.9396 10.8171C10.9715 10.7647 10.9929 10.7064 11.0024 10.6455C11.0118 10.5846 11.0093 10.5225 10.9948 10.4626C10.9803 10.4028 10.9543 10.3465 10.9181 10.2971C10.882 10.2476 10.8365 10.2061 10.7844 10.1749C8.80737 8.96639 6.35702 8.68545 3.49993 9.33885C3.44055 9.35159 3.38425 9.37626 3.33432 9.41144C3.2844 9.44661 3.24185 9.49158 3.20915 9.54371C3.17645 9.59585 3.15427 9.6541 3.14389 9.71508C3.13352 9.77606 3.13516 9.83853 3.14872 9.89885ZM2.84937 7.70423C2.94351 8.01293 3.27008 8.18697 3.57973 8.09357C5.96425 7.37003 9.03758 7.72861 11.0529 8.96789C11.3276 9.1363 11.688 9.05041 11.8572 8.77585C11.8972 8.71042 11.9241 8.63748 11.9361 8.56132C11.9482 8.48516 11.9452 8.40731 11.9273 8.33235C11.9094 8.25739 11.877 8.18683 11.832 8.12483C11.787 8.06282 11.7303 8.01062 11.6652 7.97129C9.34981 6.54935 5.96389 6.14838 3.23956 6.97507C3.16675 6.99642 3.09883 7.03229 3.03971 7.08061C2.9806 7.12893 2.93147 7.18873 2.89518 7.25655C2.85889 7.32437 2.83615 7.39886 2.82829 7.47571C2.82042 7.55256 2.82759 7.63023 2.84937 7.70423ZM12.6523 5.4421C9.86908 3.78985 5.46521 3.63457 2.8159 4.43912C2.72852 4.46464 2.64699 4.50762 2.57605 4.56558C2.50511 4.62353 2.44618 4.69529 2.40268 4.77668C2.35919 4.85808 2.332 4.94749 2.32269 5.0397C2.31339 5.13191 2.32215 5.22509 2.34848 5.31382C2.46065 5.68478 2.85231 5.8937 3.22337 5.78118C5.53104 5.08089 9.51861 5.2133 11.9366 6.64875C12.0965 6.74394 12.2866 6.77153 12.4662 6.72561C12.6457 6.6797 12.8006 6.56393 12.8975 6.40307C12.9445 6.32386 12.9754 6.23587 12.9885 6.14429C13.0016 6.0527 12.9965 5.95937 12.9736 5.86981C12.9508 5.78024 12.9106 5.69625 12.8554 5.62279C12.8002 5.54934 12.7311 5.4879 12.6523 5.4421ZM7.48014 0H7.5C7.42792 0 7.35658 0.00337576 7.28486 0.00525118C7.34996 0.00337576 7.41468 0 7.48014 0Z" fill="white"/>
</svg>
